<svg width="592" height="38" viewBox="0 0 592 38" fill="none" xmlns="http://www.w3.org/2000/svg">
<mask id="path-1-inside-1_1_189" fill="white">
<path d="M0 10C0 4.47715 4.47715 0 10 0H28C33.5228 0 38 4.47715 38 10V28C38 33.5228 33.5228 38 28 38H10C4.47715 38 0 33.5228 0 28V10Z"/>
</mask>
<path d="M0 10C0 4.47715 4.47715 0 10 0H28C33.5228 0 38 4.47715 38 10V28C38 33.5228 33.5228 38 28 38H10C4.47715 38 0 33.5228 0 28V10Z" fill="#0A0A0A"/>
<path d="M10 0V1H28V0V-1H10V0ZM38 10H37V28H38H39V10H38ZM28 38V37H10V38V39H28V38ZM0 28H1V10H0H-1V28H0ZM10 38V37C5.02944 37 1 32.9706 1 28H0H-1C-1 34.0751 3.92487 39 10 39V38ZM38 28H37C37 32.9706 32.9706 37 28 37V38V39C34.0751 39 39 34.0751 39 28H38ZM28 0V1C32.9706 1 37 5.02944 37 10H38H39C39 3.92487 34.0751 -1 28 -1V0ZM10 0V-1C3.92487 -1 -1 3.92487 -1 10H0H1C1 5.02944 5.02944 1 10 1V0Z" fill="#262626" mask="url(#path-1-inside-1_1_189)"/>
<path d="M27.3333 14.8335L19.8408 19.606C19.5866 19.7537 19.2978 19.8315 19.0038 19.8315C18.7097 19.8315 18.4209 19.7537 18.1667 19.606L10.6667 14.8335" stroke="#FAFAFA" stroke-width="1.66667" stroke-linecap="round" stroke-linejoin="round"/>
<path d="M25.6667 12.3335H12.3333C11.4129 12.3335 10.6667 13.0797 10.6667 14.0002V24.0002C10.6667 24.9206 11.4129 25.6668 12.3333 25.6668H25.6667C26.5871 25.6668 27.3333 24.9206 27.3333 24.0002V14.0002C27.3333 13.0797 26.5871 12.3335 25.6667 12.3335Z" stroke="#FAFAFA" stroke-width="1.66667" stroke-linecap="round" stroke-linejoin="round"/>
<mask id="path-5-inside-2_1_189" fill="white">
<path d="M54 10C54 4.47715 58.4772 0 64 0H82C87.5228 0 92 4.47715 92 10V28C92 33.5228 87.5228 38 82 38H64C58.4772 38 54 33.5228 54 28V10Z"/>
</mask>
<path d="M54 10C54 4.47715 58.4772 0 64 0H82C87.5228 0 92 4.47715 92 10V28C92 33.5228 87.5228 38 82 38H64C58.4772 38 54 33.5228 54 28V10Z" fill="#0A0A0A"/>
<path d="M64 0V1H82V0V-1H64V0ZM92 10H91V28H92H93V10H92ZM82 38V37H64V38V39H82V38ZM54 28H55V10H54H53V28H54ZM64 38V37C59.0294 37 55 32.9706 55 28H54H53C53 34.0751 57.9249 39 64 39V38ZM92 28H91C91 32.9706 86.9706 37 82 37V38V39C88.0751 39 93 34.0751 93 28H92ZM82 0V1C86.9706 1 91 5.02944 91 10H92H93C93 3.92487 88.0751 -1 82 -1V0ZM64 0V-1C57.9249 -1 53 3.92487 53 10H54H55C55 5.02944 59.0294 1 64 1V0Z" fill="#262626" mask="url(#path-5-inside-2_1_189)"/>
<path d="M76.3333 15.6665C77.6594 15.6665 78.9312 16.1933 79.8689 17.131C80.8065 18.0687 81.3333 19.3404 81.3333 20.6665V26.4998H78V20.6665C78 20.2245 77.8244 19.8006 77.5118 19.488C77.1993 19.1754 76.7754 18.9998 76.3333 18.9998C75.8913 18.9998 75.4674 19.1754 75.1548 19.488C74.8423 19.8006 74.6667 20.2245 74.6667 20.6665V26.4998H71.3333V20.6665C71.3333 19.3404 71.8601 18.0687 72.7978 17.131C73.7355 16.1933 75.0072 15.6665 76.3333 15.6665Z" stroke="#FAFAFA" stroke-width="1.66667" stroke-linecap="round" stroke-linejoin="round"/>
<path d="M68 16.5H64.6667V26.5H68V16.5Z" stroke="#FAFAFA" stroke-width="1.66667" stroke-linecap="round" stroke-linejoin="round"/>
<path d="M66.3333 13.9998C67.2538 13.9998 68 13.2536 68 12.3332C68 11.4127 67.2538 10.6665 66.3333 10.6665C65.4129 10.6665 64.6667 11.4127 64.6667 12.3332C64.6667 13.2536 65.4129 13.9998 66.3333 13.9998Z" stroke="#FAFAFA" stroke-width="1.66667" stroke-linecap="round" stroke-linejoin="round"/>
<mask id="path-10-inside-3_1_189" fill="white">
<path d="M108 10C108 4.47715 112.477 0 118 0H136C141.523 0 146 4.47715 146 10V28C146 33.5228 141.523 38 136 38H118C112.477 38 108 33.5228 108 28V10Z"/>
</mask>
<path d="M108 10C108 4.47715 112.477 0 118 0H136C141.523 0 146 4.47715 146 10V28C146 33.5228 141.523 38 136 38H118C112.477 38 108 33.5228 108 28V10Z" fill="#0A0A0A"/>
<path d="M118 0V1H136V0V-1H118V0ZM146 10H145V28H146H147V10H146ZM136 38V37H118V38V39H136V38ZM108 28H109V10H108H107V28H108ZM118 38V37C113.029 37 109 32.9706 109 28H108H107C107 34.0751 111.925 39 118 39V38ZM146 28H145C145 32.9706 140.971 37 136 37V38V39C142.075 39 147 34.0751 147 28H146ZM136 0V1C140.971 1 145 5.02944 145 10H146H147C147 3.92487 142.075 -1 136 -1V0ZM118 0V-1C111.925 -1 107 3.92487 107 10H108H109C109 5.02944 113.029 1 118 1V0Z" fill="#262626" mask="url(#path-10-inside-3_1_189)"/>
<path d="M135.333 12.3332C135.333 12.3332 134.75 14.0832 133.667 15.1665C135 23.4999 125.833 29.5832 118.667 24.8332C120.5 24.9165 122.333 24.3332 123.667 23.1665C119.5 21.9165 117.417 16.9999 119.5 13.1665C121.333 15.3332 124.167 16.5832 127 16.4999C126.25 12.9999 130.333 10.9999 132.833 13.3332C133.75 13.3332 135.333 12.3332 135.333 12.3332Z" stroke="#FAFAFA" stroke-width="1.66667" stroke-linecap="round" stroke-linejoin="round"/>
<mask id="path-13-inside-4_1_189" fill="white">
<path d="M162 10C162 4.47715 166.477 0 172 0H190C195.523 0 200 4.47715 200 10V28C200 33.5228 195.523 38 190 38H172C166.477 38 162 33.5228 162 28V10Z"/>
</mask>
<path d="M162 10C162 4.47715 166.477 0 172 0H190C195.523 0 200 4.47715 200 10V28C200 33.5228 195.523 38 190 38H172C166.477 38 162 33.5228 162 28V10Z" fill="#0A0A0A"/>
<path d="M172 0V1H190V0V-1H172V0ZM200 10H199V28H200H201V10H200ZM190 38V37H172V38V39H190V38ZM162 28H163V10H162H161V28H162ZM172 38V37C167.029 37 163 32.9706 163 28H162H161C161 34.0751 165.925 39 172 39V38ZM200 28H199C199 32.9706 194.971 37 190 37V38V39C196.075 39 201 34.0751 201 28H200ZM190 0V1C194.971 1 199 5.02944 199 10H200H201C201 3.92487 196.075 -1 190 -1V0ZM172 0V-1C165.925 -1 161 3.92487 161 10H162H163C163 5.02944 167.029 1 172 1V0Z" fill="#262626" mask="url(#path-13-inside-4_1_189)"/>
<path d="M183.5 27.3332V23.9998C183.616 22.9559 183.317 21.9083 182.667 21.0832C185.167 21.0832 187.667 19.4165 187.667 16.4998C187.733 15.4582 187.442 14.4332 186.833 13.5832C187.067 12.6248 187.067 11.6248 186.833 10.6665C186.833 10.6665 186 10.6665 184.333 11.9165C182.133 11.4998 179.867 11.4998 177.667 11.9165C176 10.6665 175.167 10.6665 175.167 10.6665C174.917 11.6248 174.917 12.6248 175.167 13.5832C174.56 14.4297 174.265 15.4605 174.333 16.4998C174.333 19.4165 176.833 21.0832 179.333 21.0832C179.008 21.4915 178.767 21.9582 178.625 22.4582C178.483 22.9582 178.442 23.4832 178.5 23.9998V27.3332" stroke="#FAFAFA" stroke-width="1.66667" stroke-linecap="round" stroke-linejoin="round"/>
<path d="M178.5 24.0002C174.742 25.6668 174.333 22.3335 172.667 22.3335" stroke="#FAFAFA" stroke-width="1.66667" stroke-linecap="round" stroke-linejoin="round"/>
<mask id="path-17-inside-5_1_189" fill="white">
<path d="M216 10C216 4.47715 220.477 0 226 0H244C249.523 0 254 4.47715 254 10V28C254 33.5228 249.523 38 244 38H226C220.477 38 216 33.5228 216 28V10Z"/>
</mask>
<path d="M216 10C216 4.47715 220.477 0 226 0H244C249.523 0 254 4.47715 254 10V28C254 33.5228 249.523 38 244 38H226C220.477 38 216 33.5228 216 28V10Z" fill="#0A0A0A"/>
<path d="M226 0V1H244V0V-1H226V0ZM254 10H253V28H254H255V10H254ZM244 38V37H226V38V39H244V38ZM216 28H217V10H216H215V28H216ZM226 38V37C221.029 37 217 32.9706 217 28H216H215C215 34.0751 219.925 39 226 39V38ZM254 28H253C253 32.9706 248.971 37 244 37V38V39C250.075 39 255 34.0751 255 28H254ZM244 0V1C248.971 1 253 5.02944 253 10H254H255C255 3.92487 250.075 -1 244 -1V0ZM226 0V-1C219.925 -1 215 3.92487 215 10H216H217C217 5.02944 221.029 1 226 1V0Z" fill="#262626" mask="url(#path-17-inside-5_1_189)"/>
<g clip-path="url(#clip0_1_189)">
<path d="M235 27.3332C239.602 27.3332 243.333 23.6022 243.333 18.9998C243.333 14.3975 239.602 10.6665 235 10.6665C230.398 10.6665 226.667 14.3975 226.667 18.9998C226.667 23.6022 230.398 27.3332 235 27.3332Z" stroke="#FAFAFA" stroke-width="1.66667" stroke-linecap="round" stroke-linejoin="round"/>
<path d="M240.942 13.2417C237.683 16.6167 233.333 17.7 226.875 18.1167" stroke="#FAFAFA" stroke-width="1.66667" stroke-linecap="round" stroke-linejoin="round"/>
<path d="M243.125 19.7003C237.608 18.5253 233.008 20.5337 229.475 24.967" stroke="#FAFAFA" stroke-width="1.66667" stroke-linecap="round" stroke-linejoin="round"/>
<path d="M232.133 11.2915C235.775 16.2915 237.133 19.1415 238.8 26.0582" stroke="#FAFAFA" stroke-width="1.66667" stroke-linecap="round" stroke-linejoin="round"/>
</g>
<defs>
<clipPath id="clip0_1_189">
<rect width="20" height="20" fill="white" transform="translate(225 9)"/>
</clipPath>
</defs>
</svg>
