<svg width="64" height="64" viewBox="0 0 64 64" fill="none" xmlns="http://www.w3.org/2000/svg">
<path d="M0 16C0 7.16344 7.16344 0 16 0H48C56.8366 0 64 7.16344 64 16V48C64 56.8366 56.8366 64 48 64H16C7.16344 64 0 56.8366 0 48V16Z" fill="url(#paint0_linear_1_150)"/>
<path d="M21.3333 34.6666C21.081 34.6674 20.8336 34.5967 20.6199 34.4625C20.4062 34.3284 20.2349 34.1364 20.126 33.9088C20.0171 33.6812 19.975 33.4273 20.0046 33.1768C20.0342 32.9262 20.1343 32.6892 20.2933 32.4932L33.4933 18.8932C33.5923 18.7789 33.7272 18.7017 33.8759 18.6742C34.0246 18.6467 34.1783 18.6706 34.3116 18.7419C34.445 18.8132 34.5501 18.9278 34.6098 19.0667C34.6694 19.2057 34.6801 19.3608 34.64 19.5066L32.08 27.5332C32.0045 27.7353 31.9791 27.9526 32.0061 28.1666C32.0331 28.3806 32.1115 28.5848 32.2348 28.7618C32.358 28.9388 32.5223 29.0832 32.7137 29.1828C32.905 29.2823 33.1176 29.3339 33.3333 29.3332H42.6666C42.919 29.3324 43.1663 29.4031 43.38 29.5373C43.5937 29.6714 43.765 29.8634 43.8739 30.091C43.9828 30.3186 44.0249 30.5724 43.9953 30.823C43.9657 31.0736 43.8656 31.3106 43.7066 31.5066L30.5066 45.1066C30.4076 45.2208 30.2727 45.2981 30.124 45.3256C29.9753 45.3531 29.8217 45.3292 29.6883 45.2579C29.555 45.1866 29.4499 45.072 29.3902 44.9331C29.3305 44.7941 29.3199 44.639 29.36 44.4932L31.92 36.4666C31.9955 36.2645 32.0208 36.0472 31.9938 35.8332C31.9669 35.6192 31.8884 35.415 31.7652 35.238C31.6419 35.061 31.4776 34.9165 31.2863 34.817C31.0949 34.7175 30.8823 34.6659 30.6666 34.6666H21.3333Z" stroke="white" stroke-width="2.66667" stroke-linecap="round" stroke-linejoin="round"/>
<defs>
<linearGradient id="paint0_linear_1_150" x1="0" y1="0" x2="64" y2="64" gradientUnits="userSpaceOnUse">
<stop stop-color="#AD46FF"/>
<stop offset="1" stop-color="#F6339A"/>
</linearGradient>
</defs>
</svg>
