<svg width="64" height="64" viewBox="0 0 64 64" fill="none" xmlns="http://www.w3.org/2000/svg">
<path d="M0 16C0 7.16344 7.16344 0 16 0H48C56.8366 0 64 7.16344 64 16V48C64 56.8366 56.8366 64 48 64H16C7.16344 64 0 56.8366 0 48V16Z" fill="url(#paint0_linear_1_160)"/>
<path d="M32 45.3334C39.3638 45.3334 45.3333 39.3639 45.3333 32.0001C45.3333 24.6363 39.3638 18.6667 32 18.6667C24.6362 18.6667 18.6666 24.6363 18.6666 32.0001C18.6666 39.3639 24.6362 45.3334 32 45.3334Z" stroke="white" stroke-width="2.66667" stroke-linecap="round" stroke-linejoin="round"/>
<path d="M32 40C36.4183 40 40 36.4183 40 32C40 27.5817 36.4183 24 32 24C27.5817 24 24 27.5817 24 32C24 36.4183 27.5817 40 32 40Z" stroke="white" stroke-width="2.66667" stroke-linecap="round" stroke-linejoin="round"/>
<path d="M32 34.6666C33.4728 34.6666 34.6667 33.4727 34.6667 31.9999C34.6667 30.5272 33.4728 29.3333 32 29.3333C30.5273 29.3333 29.3334 30.5272 29.3334 31.9999C29.3334 33.4727 30.5273 34.6666 32 34.6666Z" stroke="white" stroke-width="2.66667" stroke-linecap="round" stroke-linejoin="round"/>
<defs>
<linearGradient id="paint0_linear_1_160" x1="0" y1="0" x2="64" y2="64" gradientUnits="userSpaceOnUse">
<stop stop-color="#FF6900"/>
<stop offset="1" stop-color="#FB2C36"/>
</linearGradient>
</defs>
</svg>
