<svg width="64" height="64" viewBox="0 0 64 64" fill="none" xmlns="http://www.w3.org/2000/svg">
<path d="M0 16C0 7.16344 7.16344 0 16 0H48C56.8366 0 64 7.16344 64 16V48C64 56.8366 56.8366 64 48 64H16C7.16344 64 0 56.8366 0 48V16Z" fill="url(#paint0_linear_1_133)"/>
<path d="M32 40.0001V22.6667" stroke="white" stroke-width="2.66667" stroke-linecap="round" stroke-linejoin="round"/>
<path d="M36 33.3333C34.8464 32.9961 33.8331 32.2942 33.112 31.3327C32.3909 30.3712 32.0007 29.2019 32 28C31.9993 29.2019 31.6091 30.3712 30.888 31.3327C30.1669 32.2942 29.1536 32.9961 28 33.3333" stroke="white" stroke-width="2.66667" stroke-linecap="round" stroke-linejoin="round"/>
<path d="M39.464 24.6664C39.7708 24.1351 39.9513 23.5403 39.9914 22.928C40.0316 22.3158 39.9303 21.7025 39.6956 21.1356C39.4608 20.5688 39.0987 20.0635 38.6374 19.6589C38.1761 19.2544 37.6279 18.9614 37.0353 18.8026C36.4426 18.6438 35.8214 18.6234 35.2196 18.7431C34.6178 18.8628 34.0517 19.1194 33.5649 19.4929C33.0781 19.8664 32.6838 20.3469 32.4125 20.8972C32.1411 21.4475 32 22.0529 32 22.6664C32 22.0529 31.8589 21.4475 31.5875 20.8972C31.3162 20.3469 30.9219 19.8664 30.4351 19.4929C29.9483 19.1194 29.3822 18.8628 28.7804 18.7431C28.1786 18.6234 27.5574 18.6438 26.9647 18.8026C26.3721 18.9614 25.8239 19.2544 25.3626 19.6589C24.9013 20.0635 24.5392 20.5688 24.3044 21.1356C24.0697 21.7025 23.9684 22.3158 24.0086 22.928C24.0487 23.5403 24.2292 24.1351 24.536 24.6664" stroke="white" stroke-width="2.66667" stroke-linecap="round" stroke-linejoin="round"/>
<path d="M39.996 22.8333C40.7797 23.0348 41.5073 23.412 42.1237 23.9363C42.74 24.4607 43.229 25.1184 43.5535 25.8597C43.8781 26.601 44.0296 27.4064 43.9968 28.215C43.964 29.0236 43.7476 29.814 43.364 30.5266" stroke="white" stroke-width="2.66667" stroke-linecap="round" stroke-linejoin="round"/>
<path d="M40 39.9999C41.174 39.9998 42.3152 39.6124 43.2466 38.8977C44.178 38.183 44.8475 37.1809 45.1514 36.0469C45.4552 34.9129 45.3764 33.7103 44.9272 32.6257C44.4779 31.541 43.6834 30.6349 42.6667 30.0479" stroke="white" stroke-width="2.66667" stroke-linecap="round" stroke-linejoin="round"/>
<path d="M42.6227 39.3105C42.7161 40.0335 42.6603 40.768 42.4588 41.4686C42.2573 42.1692 41.9143 42.821 41.4509 43.3838C40.9876 43.9466 40.4138 44.4085 39.765 44.7409C39.1162 45.0733 38.4062 45.2691 37.6787 45.3163C36.9512 45.3635 36.2218 45.2611 35.5355 45.0154C34.8491 44.7696 34.2205 44.3858 33.6883 43.8876C33.1561 43.3893 32.7318 42.7873 32.4414 42.1186C32.151 41.45 32.0008 40.7289 32 39.9999C31.9992 40.7289 31.849 41.45 31.5586 42.1186C31.2682 42.7873 30.8438 43.3893 30.3117 43.8876C29.7795 44.3858 29.1508 44.7696 28.4645 45.0154C27.7782 45.2611 27.0488 45.3635 26.3213 45.3163C25.5938 45.2691 24.8838 45.0733 24.235 44.7409C23.5861 44.4085 23.0124 43.9466 22.549 43.3838C22.0857 42.821 21.7427 42.1692 21.5412 41.4686C21.3396 40.768 21.2839 40.0335 21.3773 39.3105" stroke="white" stroke-width="2.66667" stroke-linecap="round" stroke-linejoin="round"/>
<path d="M24 39.9999C22.826 39.9998 21.6848 39.6124 20.7534 38.8977C19.822 38.183 19.1525 37.1809 18.8486 36.0469C18.5448 34.9129 18.6236 33.7103 19.0728 32.6257C19.5221 31.541 20.3166 30.6349 21.3333 30.0479" stroke="white" stroke-width="2.66667" stroke-linecap="round" stroke-linejoin="round"/>
<path d="M24.004 22.8333C23.2203 23.0348 22.4927 23.412 21.8763 23.9363C21.2599 24.4607 20.771 25.1184 20.4465 25.8597C20.1219 26.601 19.9703 27.4064 20.0032 28.215C20.036 29.0236 20.2524 29.814 20.636 30.5266" stroke="white" stroke-width="2.66667" stroke-linecap="round" stroke-linejoin="round"/>
<defs>
<linearGradient id="paint0_linear_1_133" x1="0" y1="0" x2="64" y2="64" gradientUnits="userSpaceOnUse">
<stop stop-color="#2B7FFF"/>
<stop offset="1" stop-color="#00B8DB"/>
</linearGradient>
</defs>
</svg>
